<?xml version="1.0" encoding="iso-8859-1"?>
<!-- Generator: Adobe Illustrator 19.0.0, SVG Export Plug-In . SVG Version: 6.00 Build 0)  -->
<svg version="1.1" id="Capa_1" xmlns="http://www.w3.org/2000/svg" xmlns:xlink="http://www.w3.org/1999/xlink" x="0px" y="0px"
	 viewBox="0 0 511.994 511.994" style="enable-background:new 0 0 511.994 511.994;" xml:space="preserve">
<g transform="translate(0 1)">
	<g>
		<g>
			<path d="M21.637,253.233c6.276,31.549,20.965,60.821,42.513,84.708c36.563,39.759,92.291,61.863,165.347,66.135V387.41
				c0-14.627,11.855-26.482,26.482-26.482c14.627,0,26.482,11.855,26.482,26.482v16.816c32.061-1.386,63.708-7.75,93.809-18.855
				c10.213-3.884,20.1-8.571,29.572-14.027c0.3-0.238,0.618-0.45,0.945-0.644c43.475-25.291,73.93-68.095,83.578-117.458
				c-42.389,33.244-140.577,50.855-234.36,50.855C162.214,304.088,64.018,286.477,21.637,253.233z"/>
			<path d="M494.311,216.131c-0.088-33.218-97.932-70.213-238.314-70.213c-140.444,0-238.314,37.022-238.314,70.258
				s97.87,70.258,238.314,70.258c139.465,0,236.902-36.51,238.252-69.56l-0.009-0.282
				C494.241,216.431,494.311,216.29,494.311,216.131z M61.776,237.343c-3.566,0-6.788-2.154-8.157-5.447
				c-1.368-3.301-0.609-7.097,1.916-9.622l44.137-44.137c3.451-3.39,9.004-3.372,12.429,0.053s3.452,8.969,0.053,12.429
				l-44.137,44.137C66.357,236.416,64.115,237.343,61.776,237.343z M97.085,254.998c-3.566,0-6.788-2.154-8.157-5.446
				c-1.368-3.302-0.609-7.097,1.916-9.622l70.619-70.619c3.452-3.39,9.004-3.372,12.429,0.053s3.452,8.969,0.053,12.429
				l-70.619,70.619C101.667,254.071,99.425,254.998,97.085,254.998z M141.223,263.826c-3.566,0-6.788-2.154-8.157-5.447
				c-1.368-3.301-0.609-7.097,1.916-9.622l88.274-88.274c3.452-3.39,9.004-3.372,12.429,0.053s3.451,8.969,0.053,12.429
				l-88.274,88.274C145.804,262.899,143.562,263.826,141.223,263.826z M185.36,272.653c-3.566,0-6.788-2.154-8.157-5.447
				c-1.368-3.301-0.609-7.097,1.916-9.622l97.102-97.102c2.225-2.26,5.491-3.16,8.554-2.348c3.063,0.812,5.464,3.204,6.276,6.276
				c0.812,3.063-0.088,6.329-2.348,8.554l-97.102,97.102C189.941,271.726,187.699,272.653,185.36,272.653z M244.565,270.067
				c-3.452,3.39-9.004,3.372-12.429-0.053c-3.425-3.425-3.452-8.969-0.053-12.429l88.274-88.274c2.224-2.26,5.491-3.16,8.554-2.348
				c3.063,0.812,5.464,3.204,6.276,6.276c0.812,3.063-0.088,6.329-2.348,8.554L244.565,270.067z M291.289,272.653
				c-3.566,0-6.788-2.154-8.157-5.447c-1.368-3.301-0.609-7.097,1.916-9.622l79.447-79.447c2.224-2.26,5.491-3.16,8.554-2.348
				c3.063,0.812,5.464,3.204,6.276,6.276c0.812,3.063-0.088,6.329-2.348,8.554l-79.447,79.447
				C295.87,271.726,293.628,272.653,291.289,272.653z M353.081,263.826c-3.566,0-6.788-2.154-8.156-5.447
				c-1.368-3.301-0.609-7.097,1.916-9.622l70.619-70.62c2.225-2.26,5.491-3.16,8.554-2.348s5.464,3.204,6.276,6.276
				c0.812,3.063-0.088,6.329-2.348,8.554l-70.619,70.619C357.662,262.899,355.42,263.826,353.081,263.826z M456.424,217.102
				l-35.31,35.31c-3.452,3.39-9.004,3.372-12.429-0.053s-3.451-8.969-0.053-12.429l35.31-35.31c2.225-2.26,5.491-3.16,8.554-2.348
				s5.464,3.204,6.276,6.276C459.584,211.611,458.684,214.878,456.424,217.102z"/>
			<path d="M418.148,384.444c-0.494,0.3-0.945,0.609-1.448,0.909c-0.318,0.256-0.653,0.485-0.997,0.689
				c-4.237,2.463-8.598,4.687-12.976,6.868l42.301,80.983c1.042,2.136,2.922,3.743,5.199,4.44c2.277,0.697,4.732,0.424,6.797-0.75
				c4.255-2.286,5.87-7.583,3.602-11.855L418.148,384.444z"/>
			<path d="M51.333,465.382c-1.112,2.083-1.333,4.529-0.618,6.779c0.715,2.251,2.313,4.114,4.423,5.173
				c4.299,2.189,9.569,0.503,11.785-3.787l42.116-80.621c-5.332-2.666-10.487-5.508-15.457-8.527L51.333,465.382z"/>
			<path d="M255.979,378.582c-4.873,0.009-8.819,3.955-8.827,8.827v114.757c0,4.873,3.955,8.827,8.827,8.827
				c4.873,0,8.827-3.955,8.827-8.827V387.41C264.798,382.537,260.852,378.582,255.979,378.582z"/>
			<path d="M193.552,95.036l-3.54,4.228c-3.125,3.743-2.631,9.313,1.103,12.438c1.66,1.377,3.663,2.057,5.667,2.057
				c2.525,0,5.032-1.077,6.762-3.143l3.549-4.237c10.919-13.056,10.919-32.017-0.018-45.099c-5.438-6.497-5.438-15.934,0-22.43
				l21.195-25.344c3.134-3.743,2.639-9.313-1.103-12.438c-3.734-3.143-9.313-2.648-12.438,1.103l-21.195,25.344
				c-10.928,13.065-10.928,32.026,0.018,45.099C198.98,79.112,198.98,88.548,193.552,95.036z"/>
			<path d="M246.516,95.036l-3.54,4.228c-3.125,3.743-2.631,9.313,1.103,12.438c1.66,1.377,3.663,2.057,5.667,2.057
				c2.525,0,5.032-1.077,6.762-3.143l3.549-4.237c10.928-13.056,10.928-32.017-0.018-45.099c-5.438-6.497-5.438-15.934,0-22.43
				l21.195-25.344c3.116-3.743,2.631-9.313-1.112-12.438c-3.76-3.143-9.313-2.622-12.438,1.103l-21.186,25.344
				c-10.928,13.065-10.928,32.026,0.018,45.099C251.945,79.112,251.945,88.548,246.516,95.036z"/>
			<path d="M299.49,95.036l-3.54,4.228c-3.125,3.743-2.639,9.313,1.103,12.438c1.651,1.377,3.663,2.057,5.658,2.057
				c2.525,0,5.032-1.077,6.771-3.143l3.54-4.237c10.928-13.056,10.928-32.017-0.018-45.099c-5.429-6.497-5.429-15.934,0.009-22.43
				l21.186-25.344c3.116-3.743,2.631-9.313-1.112-12.438c-3.76-3.143-9.313-2.622-12.438,1.103l-21.177,25.344
				c-10.928,13.065-10.928,32.026,0.018,45.099C304.919,79.112,304.919,88.539,299.49,95.036z"/>
		</g>
	</g>
</g>
<g>
</g>
<g>
</g>
<g>
</g>
<g>
</g>
<g>
</g>
<g>
</g>
<g>
</g>
<g>
</g>
<g>
</g>
<g>
</g>
<g>
</g>
<g>
</g>
<g>
</g>
<g>
</g>
<g>
</g>
</svg>
